<?xml version="1.0" encoding="utf-8"?>
<svg
	version="1.1"
	xmlns="http://www.w3.org/2000/svg"
	xmlns:xlink="http://www.w3.org/1999/xlink"
	x="0%" y="0%"
	width="100%" height="100%"
	viewBox="0 0 24.0 24.0"
	enable-background="new 0 0 24.0 24.0"
	xml:space="preserve">
	<path
		fill="#F00000"
		stroke="#FFFFFF"
		fill-opacity="1.000"
		stroke-opacity="1.000"
		fill-rule="nonzero"
		stroke-width="0.81600004"
		stroke-linejoin="miter"
		stroke-linecap="square"
		d="M10.59,8.05C12.22,8.05,13.55,9.37,13.55,11.01C13.55,12.64,12.22,13.96,10.59,13.96C8.96,13.96,7.64,12.64,7.64,11.01C7.64,9.37,8.96,8.05,10.59,8.05zM10.59,9.53C9.78,9.53,9.11,10.19,9.11,11.01C9.11,11.82,9.78,12.48,10.59,12.48C11.41,12.48,12.07,11.82,12.07,11.01C12.07,10.19,11.41,9.53,10.59,9.53zM10.59,9.53C9.78,9.53,9.11,10.19,9.11,11.01C9.11,11.82,9.78,12.48,10.59,12.48C11.41,12.48,12.07,11.82,12.07,11.01C12.07,10.19,11.41,9.53,10.59,9.53z"/>
</svg>